<svg width="26" height="26" viewBox="0 0 26 26" fill="none" xmlns="http://www.w3.org/2000/svg">
<g id="Group 18559">
<g id="super g">
<path id="Shape" d="M13.0005 5.02721C14.8632 4.99855 16.6646 5.69251 18.0267 6.96346L21.6955 3.37596C19.3417 1.17039 16.2259 -0.0390273 13.0005 0.000960935C10.5905 0.000404079 8.22797 0.670256 6.17696 1.93561C4.12596 3.20096 2.46738 5.01192 1.38672 7.16596L5.59047 10.4297C6.10448 8.86678 7.09614 7.50463 8.42559 6.53535C9.75505 5.56607 11.3552 5.03856 13.0005 5.02721Z" fill="#E43E2B"/>
<path id="Shape_2" d="M25.48 13.2901C25.4953 12.3964 25.403 11.5042 25.205 10.6326H13V15.4576H20.165C20.0291 16.3035 19.7235 17.1132 19.2666 17.838C18.8097 18.5628 18.2109 19.1877 17.5062 19.6751L21.6087 22.8526C22.8873 21.6182 23.8928 20.1293 24.5602 18.4822C25.2277 16.8351 25.5423 15.0663 25.4837 13.2901H25.48Z" fill="#3B7DED"/>
<path id="Shape_3" d="M5.60543 15.5715C5.3212 14.7439 5.17467 13.8753 5.17168 13.0003C5.17686 12.1267 5.31814 11.2592 5.59043 10.429L1.38668 7.16528C0.47492 8.97545 0 10.9741 0 13.0009C0 15.0277 0.47492 17.0264 1.38668 18.8365L5.60543 15.5715Z" fill="#F0B501"/>
<path id="Shape_4" d="M13.0004 26.0008C16.167 26.0903 19.2476 24.9635 21.6091 22.852L17.5066 19.6745C16.1764 20.5663 14.6011 21.0207 13.0004 20.9745C11.3565 20.9647 9.7575 20.4376 8.43013 19.4679C7.10275 18.4982 6.11443 17.1351 5.60536 15.572L1.40161 18.837C2.47936 20.9901 4.13522 22.8006 6.18375 24.0659C8.23229 25.3311 10.5926 26.0011 13.0004 26.0008Z" fill="#2BA24C"/>
</g>
</g>
</svg>
