<svg width="20" height="20" viewBox="0 0 20 20" fill="none" xmlns="http://www.w3.org/2000/svg">
<g clip-path="url(#clip0_704_6513)">
<path d="M19.1306 16.6993L11.4289 8.99759L2.43083 -0.000488281H1.72763L1.58404 0.364368C1.20506 1.3274 1.04314 2.31237 1.11584 3.21267C1.1987 4.23892 1.58857 5.12741 2.24336 5.78221L9.26774 12.8066L10.1942 11.8801L16.6883 19.1417C17.3343 19.7877 18.4462 19.826 19.1306 19.1417C19.804 18.4683 19.804 17.3726 19.1306 16.6993Z" fill="#29D697"/>
<path d="M6.01244 11.1809L0.510973 16.6824C-0.162349 17.3557 -0.162349 18.4513 0.510973 19.1247C1.15061 19.7643 2.25715 19.8208 2.95326 19.1247L8.45477 13.6232L6.01244 11.1809Z" fill="#29D697"/>
<path d="M18.8074 3.26962L15.6866 6.39033L14.8725 5.57622L17.9932 2.45547L17.1791 1.64136L14.0584 4.76207L13.2443 3.94796L16.365 0.827254L15.551 0.0131836L11.4804 4.08373C10.9825 4.5817 10.6851 5.2429 10.6431 5.9456C10.6324 6.12364 10.5921 6.29876 10.5251 6.46533L13.1694 9.10955C13.3359 9.04253 13.5111 9.00221 13.6891 8.99159C14.3918 8.94966 15.053 8.65224 15.551 8.15427L19.6215 4.08376L18.8074 3.26962Z" fill="#29D697"/>
</g>
<defs>
<clipPath id="clip0_704_6513">
<rect width="19.6411" height="19.6411" fill="white"/>
</clipPath>
</defs>
</svg>
